<?xml version="1.0" encoding="utf-8"?>
<!-- Generator: Adobe Illustrator 19.2.0, SVG Export Plug-In . SVG Version: 6.00 Build 0)  -->
<svg version="1.1" id="Layer_1" xmlns="http://www.w3.org/2000/svg" xmlns:xlink="http://www.w3.org/1999/xlink" x="0px" y="0px"
	 viewBox="0 0 131 118" style="enable-background:new 0 0 131 118;" xml:space="preserve">
<style type="text/css">
	.st0{fill:#FFFFFF;}
</style>
<path class="st0" d="M123.7,82.3c-4.7-6.1-11.4-8.3-15.5-9.1l17.1-21.5c0.5-0.6,0.6-1.5,0.3-2.2c-0.3-0.7-1-1.2-1.8-1.2l-12.1-0.2
	c0.8-1,1.5-2.1,1.9-3.5c0.9-3.1,0.3-6.4-1.8-9.8c-2.8-4.5-7.5-5.2-11.2-5.9c-1.9-0.3-3.7-0.6-4.6-1.3c-1.1-0.9-1.6-5.2-1.9-8.3
	c-0.5-5.2-1-10.5-4.3-12.6c-2-1.3-4.2-1.9-6.8-1.9c-2.5,0-4.9,0.6-7.3,1.1c-2.2,0.5-4.3,1-6.3,1c-0.4,0-0.8,0-1.1-0.1
	c-1.8-0.2-4.9-1.2-8.2-2.2c-5.6-1.8-12.5-4-17.9-4c-2.1,0-3.8,0.3-5.2,0.9c-4.5,1.9-5.1,8.4-5.6,14.7c-0.3,3.7-0.7,7.5-1.8,9.2
	c-0.8,1.3-3.6,2.1-6.3,2.9c-5,1.5-11.2,3.4-12.9,9.7C9,42.2,13.3,46.9,17,50L2.7,51.2c-0.8,0.1-1.4,0.5-1.7,1.2
	c-0.3,0.7-0.2,1.5,0.2,2.1l17.4,23.3c-2.8,1.4-7.2,4-9.9,7.4c-4.6,6.1-5.3,26.9-5.4,29.2c0,0.6,0.2,1.1,0.6,1.5
	c0.4,0.4,0.9,0.6,1.4,0.6c0,0,0.1,0,0.1,0l122.1-6.9c0.5,0,1.1-0.3,1.4-0.7c0.4-0.4,0.6-1,0.5-1.5
	C129.5,105.5,128.4,88.3,123.7,82.3z M49.8,66.3c-1.9,2.9-5.4,8.9-12.7,5.9c-8-3.2-13.8-19.2-7.5-17c4.2,1.4,14.4,4.3,20.9,4.8
	C51.8,60.1,50.7,64.9,49.8,66.3z M67.1,76.8c-9,1.9-11.7-5.6-13.4-9.4c-0.6-1.4-0.9-7.3,0.6-7.1C61.9,61,74,59.8,79.1,59
	C86.8,57.7,76.9,74.7,67.1,76.8z M89.1,38.5c-22.6,10.6-45.8,4.5-56-1c-5-2.7-2-5.1,2-2.8c8.2,4.7,32,9,51.2,1
	C94.3,32.3,93.6,36.3,89.1,38.5z"/>
</svg>
