<?xml version="1.0" encoding="utf-8"?>
<!-- Generator: Adobe Illustrator 19.2.0, SVG Export Plug-In . SVG Version: 6.00 Build 0)  -->
<svg version="1.1" id="Layer_1" xmlns="http://www.w3.org/2000/svg" xmlns:xlink="http://www.w3.org/1999/xlink" x="0px" y="0px"
	 viewBox="0 0 58.9 126.2" style="enable-background:new 0 0 58.9 126.2;" xml:space="preserve">
<style type="text/css">
	.st0{fill:#FFFFFF;}
</style>
<g id="_x23_020201ff_1_">
	<path class="st0" d="M19.4,6.5C24.3,1.8,31.3,0.2,37.9,0c7-0.1,14,0,21,0c0,7.4,0,14.7,0,22.1c-4.5,0-9,0-13.5,0
		c-2.9-0.2-5.8,2-6.3,4.8c-0.1,4.9,0,9.9,0,14.8c6.6,0,13.2,0,19.9,0c-0.5,7.1-1.4,14.2-2.4,21.3c-5.8,0.1-11.7,0-17.5,0
		c-0.1,21,0,42.1,0,63.1c-8.7,0-17.4,0-26.1,0c-0.2-21,0-42.1-0.1-63.1c-4.2,0-8.5,0-12.7,0C0,56,0,48.9,0,41.8
		c4.2-0.1,8.5,0,12.7,0c0.1-6.9-0.1-13.8,0.1-20.6C13.3,15.7,15.3,10.3,19.4,6.5z"/>
</g>
</svg>
