<?xml version="1.0" encoding="utf-8"?>
<!-- Generator: Adobe Illustrator 19.2.0, SVG Export Plug-In . SVG Version: 6.00 Build 0)  -->
<svg version="1.1" id="Layer_1" xmlns="http://www.w3.org/2000/svg" xmlns:xlink="http://www.w3.org/1999/xlink" x="0px" y="0px"
	 viewBox="0 0 127.7 124.6" style="enable-background:new 0 0 127.7 124.6;" xml:space="preserve">
<style type="text/css">
	.st0{fill:#010101;}
</style>
<path class="st0" d="M63.9,0.7C29,0.7,0.7,29,0.7,63.8c0,27.9,18.1,51.5,43.2,59.9c3.2,0.6,4.3-1.4,4.3-3c0-1.5-0.1-6.5-0.1-11.8
	c-17.6,3.8-21.3-7.4-21.3-7.4c-2.9-7.3-7-9.2-7-9.2c-5.7-3.9,0.4-3.8,0.4-3.8c6.3,0.4,9.7,6.5,9.7,6.5c5.6,9.6,14.8,6.9,18.4,5.2
	c0.6-4.1,2.2-6.9,4-8.4c-14-1.6-28.8-7-28.8-31.2c0-6.9,2.5-12.5,6.5-16.9c-0.6-1.6-2.8-8,0.6-16.7c0,0,5.3-1.7,17.4,6.5
	c5-1.4,10.4-2.1,15.8-2.1c5.4,0,10.8,0.7,15.8,2.1c12-8.2,17.3-6.5,17.3-6.5c3.5,8.7,1.3,15.1,0.6,16.7c4,4.4,6.5,10,6.5,16.9
	c0,24.2-14.8,29.6-28.8,31.2c2.3,2,4.3,5.8,4.3,11.7c0,8.4-0.1,15.2-0.1,17.3c0,1.7,1.1,3.6,4.3,3c25.1-8.4,43.1-32,43.1-59.9
	C127,29,98.7,0.7,63.9,0.7z"/>
</svg>
