<?xml version="1.0" encoding="utf-8"?>
<!-- Generator: Adobe Illustrator 19.2.0, SVG Export Plug-In . SVG Version: 6.00 Build 0)  -->
<svg version="1.1" id="Layer_1" xmlns="http://www.w3.org/2000/svg" xmlns:xlink="http://www.w3.org/1999/xlink" x="0px" y="0px"
	 viewBox="0 0 182 126.2" style="enable-background:new 0 0 182 126.2;" xml:space="preserve">
<style type="text/css">
	.st0{fill:#FFFFFF;}
</style>
<g id="_x23_020201ff">
	<path class="st0" d="M113.9,5.9c3.9-3,8.5-5.3,13.5-5.9c-0.7,3-3.5,4.5-5.9,5.9c3.7-1.1,7.3-2.7,11.2-3c1,0,2.5,0,2.9,1.2
		c0.6,1.5-1,2.7-2.1,3.3c-4.3,2.2-9.2,2.5-13.5,4.5c8.9-0.8,17.8,2.6,24.5,8.3c8.1,6.6,13.4,16.2,15.3,26.4
		c7.1,1.9,14.8,0.5,21.5-2.3c-3.4,7.6-11.9,11.1-19.7,11.8c6.5,2.4,13.6,2.9,20.5,2.1c-5.4,6-13.9,8.4-21.8,8.2
		c-3.3,13.4-11.1,25.5-21.3,34.8c-19.8,17.9-47.1,26.5-73.5,24.8C40,124.5,15,111.9,0,91.1c1.3,0.8,2.4,1.8,3.7,2.7
		c11.6,8.4,27.1,11.1,40.9,7.3c8.4-2.2,16-6.9,22.1-13c-3.9,0.3-8.2-0.4-11-3.4c-1.8-1.7-2.5-4.4-1.4-6.7c1.3-2.8,4.1-4.4,6.8-5.7
		c-8.8,1.3-18.4-2.8-22.5-11c3-3.6,7.7-4.7,12.2-5c-5.1-1.5-10.4-3.3-14.3-7.2c-3.1-2.9-5.1-6.9-5.7-11.1c3.6-0.7,7.3-1.5,11-1.4
		c-8.5-4.4-16.2-12.8-15.5-22.9C42.2,19.6,58,26.3,73.1,34.4c5.3,2.9,9.7,7.1,14,11.2c4.2-10.9,8.7-21.8,15.5-31.3
		c3.6-5,7.9-9.7,13.2-13C115.5,3,114.7,4.4,113.9,5.9z"/>
</g>
</svg>
